<svg xmlns="http://www.w3.org/2000/svg" viewBox="0 0 80 80" id="WorkOnLaptop"><path d="M40 31c7.168 0 13-5.832 13-13S47.168 5 40 5s-13 5.832-13 13 5.832 13 13 13zm0-24c6.065 0 11 4.935 11 11s-4.935 11-11 11-11-4.935-11-11S33.935 7 40 7zm32 55.936c0-1.446-.39-2.868-1.126-4.11L58.765 38.392A11.048 11.048 0 0 0 49.302 33H30.698a11.048 11.048 0 0 0-9.463 5.393L9.126 58.825A8.041 8.041 0 0 0 10.766 69H5v6h70v-6h-5.766A8.041 8.041 0 0 0 72 62.936zm-62 0c0-1.087.293-2.157.847-3.091l12.109-20.433A9.039 9.039 0 0 1 30.698 35h18.604c3.163 0 6.13 1.69 7.742 4.412l12.109 20.433c.554.934.847 2.004.847 3.09A6.071 6.071 0 0 1 63.936 69h-5.12c.112-.314.184-.648.184-1a2.995 2.995 0 0 0-2-2.816V64h7a1 1 0 0 0 .849-1.528L57 49.869V44H23v5.869l-7.849 12.603A1 1 0 0 0 16 64h7v1.184A2.995 2.995 0 0 0 21 68c0 .352.072.686.184 1h-5.12A6.071 6.071 0 0 1 10 62.936zM23 68c0-.552.449-1 1-1h32a1.001 1.001 0 0 1 0 2H24c-.551 0-1-.448-1-1zm34-14.349L62.2 62H57v-8.349zM55 65H25V46h30v19zm-32-3h-5.2l5.2-8.349V62zm50 9v2H7v-2h66z" fill="#2451ff" class="color000000 svgShape"></path></svg>