<svg xmlns="http://www.w3.org/2000/svg" viewBox="0 0 64 64" id="Solution"><g data-name="Layer 1" fill="#2451ff" class="color000000 svgShape"><path d="M56.5 25.10742h-4a1.00019 1.00019 0 0 0 .00006 2H56.5A1.00019 1.00019 0 0 0 56.5 25.10742zM54.68945 13.42871a1.00208 1.00208 0 0 0-1.3291-.4834l-3.626 1.69043a1 1 0 0 0 .8457 1.8125l3.626-1.69043A1.0004 1.0004 0 0 0 54.68945 13.42871zM44.335 7.59863l2.57129-3.06347A.99973.99973 0 0 0 45.375 3.25005L42.80371 6.31348A.99973.99973 0 0 0 44.335 7.59863zM27.5 5.11035c-21.921.2419-28.96969 29.31622-9.77289 39.58991-1.577 1.114-1.67306 4.00425-.44684 5.40716a3.86555 3.86555 0 0 0-.78018 3 3.00314 3.00314 0 0 0 2.99991 3h3.00018c.20648 6.6124 9.79477 6.60912 9.99964 0H35.5a3.00328 3.00328 0 0 0 3-3 3.86734 3.86734 0 0 0-.78027-3c1.22365-1.38976 1.12813-4.30868-.44684-5.40716C56.47985 34.41762 49.40714 5.34754 27.5 5.11035zm6.23138 40.99707H35.5a1.00067 1.00067 0 0 1 1 1v1a1.00067 1.00067 0 0 1-1 1h-16a1.00067 1.00067 0 0 1-1-1v-1a1.00067 1.00067 0 0 1 1-1zM30.5 56.11035a3 3 0 0 1-5.99963-.00293zm6-3.00293a1.00067 1.00067 0 0 1-1 1h-16a1.00067 1.00067 0 0 1-1-1v-1a1.00067 1.00067 0 0 1 1-1h16a1.00067 1.00067 0 0 1 1 1zm-2.92-9H21.42c-20.19851-7.16135-15.35669-36.63 6.08028-36.997C48.94134 7.48079 53.77537 36.94819 33.58 44.10742z" fill="#2451ff" class="color000000 svgShape"></path><path d="M28.64648,12.10742A8.03855,8.03855,0,0,0,19.5,19.962l0,1.1454a3.00019,3.00019,0,0,0,6-.00009V19.96191a1.8559,1.8559,0,0,1,1.85352-1.85449h1.293A1.8559,1.8559,0,0,1,30.5,19.96191v1.14551A2.1885,2.1885,0,0,1,28.84174,23.082c-2.95178,1.40537-5.595,5.75629-3.72284,8.83a3.9917,3.9917,0,1,0,4.7622,0c.94976-1.01955.1827-2.80226,1.64235-3.46172C39.48516,25.272,37.57667,12.0539,28.64648,12.10742Zm-1.14648,25a2.00021,2.00021,0,0,1,.00009-4A2.00021,2.00021,0,0,1,27.5,37.10742Zm7-16a5.98731,5.98731,0,0,1-3.87115,5.55366A3.83019,3.83019,0,0,0,28.5,30.10742a1,1,0,1,1-2,0,5.82391,5.82391,0,0,1,3.23535-5.23633A4.05084,4.05084,0,0,0,32.5,21.10737L32.5,19.96191a3.85851,3.85851,0,0,0-3.85352-3.85449h-1.293A3.85851,3.85851,0,0,0,23.5,19.96191v1.14551a1.00011,1.00011,0,0,1-2,0C20.5606,11.67193,35.42388,11.66667,34.5,21.10742Z" fill="#2451ff" class="color000000 svgShape"></path></g></svg>