<svg xmlns="http://www.w3.org/2000/svg" viewBox="0 0 48 48" id="WebsiteCoding"><g data-name="Layer 2" fill="#000000" class="color000000 svgShape"><path fill="#2451ff" d="M41,42H7a1,1,0,0,1-1-1V7A1,1,0,0,1,7,6H41a1,1,0,0,1,1,1V41A1,1,0,0,1,41,42ZM8,40H40V8H8Z" class="color231f20 svgShape"></path><circle cx="11" cy="11" r="1" fill="#2451ff" class="color231f20 svgShape"></circle><circle cx="15" cy="11" r="1" fill="#2451ff" class="color231f20 svgShape"></circle><circle cx="19" cy="11" r="1" fill="#2451ff" class="color231f20 svgShape"></circle><path fill="#2451ff" d="M21 16H7a1 1 0 0 1 0-2H20.59l3.7-3.71A1 1 0 0 1 25 10H41a1 1 0 0 1 0 2H25.41l-3.7 3.71A1 1 0 0 1 21 16zM16.59 32a1 1 0 0 1-.71-.29l-4-4a1 1 0 0 1 0-1.42l4-4a1 1 0 0 1 1.41 0 1 1 0 0 1 0 1.42L14 27l3.29 3.29a1 1 0 0 1-.7 1.71zM31.59 32a1 1 0 0 1-.71-1.71L34.17 27l-3.29-3.29a1 1 0 0 1 0-1.42 1 1 0 0 1 1.41 0l4 4a1 1 0 0 1 0 1.42l-4 4A1 1 0 0 1 31.59 32zM22 32a.93.93 0 0 1-.45-.11 1 1 0 0 1-.44-1.34l4-8a1 1 0 1 1 1.78.9l-4 8A1 1 0 0 1 22 32z" class="color231f20 svgShape"></path></g></svg>